<?xml version="1.0" standalone="no"?>
<!DOCTYPE svg PUBLIC "-//W3C//DTD SVG 20010904//EN"
 "http://www.w3.org/TR/2001/REC-SVG-20010904/DTD/svg10.dtd">
<svg version="1.0" xmlns="http://www.w3.org/2000/svg"
 width="700.000000pt" height="700.000000pt" viewBox="0 0 700.000000 700.000000"
 preserveAspectRatio="xMidYMid meet">
<metadata>
Created by potrace 1.14, written by Peter Selinger 2001-2017
</metadata>
<g transform="translate(0.000000,700.000000) scale(0.100000,-0.100000)"
fill="#000000" stroke="none">
<path d="M3985 6046 c-13 -19 -13 -28 -4 -50 14 -31 38 -40 72 -27 31 12 41
41 26 75 -17 36 -71 37 -94 2z"/>
<path d="M4684 5991 c-28 -17 -52 -59 -49 -86 9 -80 58 -171 113 -207 31 -21
96 -23 131 -5 35 18 79 77 86 114 7 44 -26 112 -69 141 -41 28 -128 62 -159
62 -12 0 -36 -9 -53 -19z"/>
<path d="M2517 5762 c-41 -45 -2 -111 52 -91 45 18 55 55 21 89 -25 25 -52 26
-73 2z"/>
<path d="M5408 5763 c-29 -18 -40 -39 -59 -113 -6 -25 -20 -61 -30 -82 -23
-45 -97 -121 -139 -143 -29 -15 -35 -15 -93 4 -65 21 -177 45 -262 56 -63 8
-506 8 -571 0 -152 -19 -327 -69 -420 -121 -25 -14 -53 -23 -63 -19 -33 10
-119 101 -145 153 -14 28 -29 69 -32 93 -13 81 -79 126 -146 98 -51 -21 -118
-155 -134 -268 -23 -154 7 -302 87 -429 25 -40 26 -43 11 -76 -14 -31 -17 -33
-46 -25 -50 15 -145 30 -204 34 -41 2 -58 8 -65 22 -6 10 -35 44 -66 76 -91
96 -234 172 -361 193 -44 7 -181 7 -210 1 -85 -20 -94 -23 -190 -70 -78 -38
-168 -113 -219 -182 -29 -39 -30 -39 -97 -41 -161 -4 -296 -46 -424 -130 -189
-124 -313 -311 -356 -534 -14 -70 -18 -77 -63 -117 -116 -101 -224 -296 -247
-444 -58 -383 137 -731 491 -876 44 -18 79 -36 79 -40 -1 -5 -5 -48 -9 -98 -3
-49 -8 -108 -10 -130 -9 -85 -18 -338 -18 -515 -1 -168 10 -416 17 -429 2 -4
6 -28 10 -56 16 -131 48 -243 102 -353 104 -214 292 -327 539 -323 50 1 106 5
125 9 25 6 52 3 95 -11 117 -38 536 -31 611 11 9 5 40 4 77 -3 207 -38 444 41
558 187 55 71 52 70 90 31 103 -106 247 -177 424 -211 17 -3 244 -5 505 -5
349 0 487 3 520 13 25 6 54 14 65 16 43 8 153 59 217 101 89 58 192 171 253
277 42 72 53 85 70 80 134 -40 254 -43 365 -8 30 9 78 18 105 19 64 3 94 15
143 60 97 87 115 255 48 453 -13 39 -23 53 -42 58 -33 8 -49 -7 -64 -61 -15
-55 -53 -94 -140 -145 -71 -42 -104 -73 -115 -108 -9 -30 -47 -45 -112 -44
-51 1 -123 24 -123 39 0 4 5 28 11 53 16 67 18 77 25 139 3 31 8 58 9 61 13
22 18 408 18 1330 0 1066 -2 1192 -28 1345 -21 129 -94 347 -136 407 -11 14
-19 30 -19 35 -1 4 -13 26 -29 47 l-28 39 23 47 c88 183 69 439 -46 596 -33
45 -86 56 -132 27z"/>
<path d="M1673 5468 c-59 -41 -75 -127 -37 -187 24 -36 84 -91 112 -102 107
-42 217 65 180 174 -12 32 -61 87 -108 120 -36 25 -108 22 -147 -5z"/>
<path d="M611 3714 c-44 -56 34 -119 82 -66 21 23 21 41 1 70 -20 30 -58 28
-83 -4z"/>
<path d="M6135 3729 c-41 -25 -115 -113 -121 -145 -15 -83 54 -164 139 -164
60 0 174 99 179 154 4 66 -12 113 -49 140 -32 23 -119 32 -148 15z"/>
<path d="M6180 3004 c-44 -12 -45 -84 -2 -103 22 -10 30 -9 51 7 32 23 34 50
7 80 -19 22 -26 24 -56 16z"/>
<path d="M1052 2610 c-34 -21 -62 -72 -62 -112 0 -60 69 -128 130 -128 40 0
93 34 112 71 61 118 -67 238 -180 169z"/>
</g>
</svg>
